<?xml version="1.0" encoding="iso-8859-1"?>
<!-- Uploaded to: SVG Repo, www.svgrepo.com, Generator: SVG Repo Mixer Tools -->
<svg fill="#000000" height="800px" width="800px" version="1.1" id="Layer_1" xmlns="http://www.w3.org/2000/svg" xmlns:xlink="http://www.w3.org/1999/xlink" 
	 viewBox="0 0 512.094 512.094" xml:space="preserve">
<g>
	<g>
		<path d="M504.598,261.798l-0.017-2.56c-0.589-8.286-10.146-27.571-86.374-27.571h-0.128c-17.229,1.254-54.093-1.382-58.231-17.314
			c-0.631-2.458-2.33-4.506-4.634-5.581c-1.562-0.742-9.719-4.215-16.683-0.452c-0.137,0.068-0.282,0.154-0.418,0.23l-6.886-5.171
			c-0.213-0.546-0.563-1.229-0.845-1.843l-36.019,36.011c-1.664,1.664-3.849,2.5-6.033,2.5c-2.185,0-4.361-0.836-6.033-2.5
			c-3.328-3.337-3.328-8.738,0-12.066l36.147-36.139c-0.23-0.085-0.384-0.247-0.623-0.324c-3.243-1.024-7.953-1.408-13.568,1.451
			l-4.617-3.081c-0.247-0.614-0.58-1.306-0.922-1.988l-34.97,40.073c-1.69,1.937-4.053,2.927-6.426,2.927
			c-1.997,0-3.994-0.691-5.615-2.099c-3.55-3.098-3.917-8.491-0.819-12.041l34.261-39.279c-2.321-0.316-5.026-0.23-8.149,0.674
			c-2.935-1.57-6.391-3.891-8.32-6.281l-37.845,37.837c-1.664,1.673-3.849,2.5-6.033,2.5c-2.185,0-4.369-0.828-6.033-2.5
			c-3.337-3.328-3.337-8.738,0-12.066l36.753-36.745c-2.5-0.222-5.513,0.162-8.9,2.082c-2.44-0.58-7.893-2.876-14.345-12.041
			c-9.719-13.798-32.725-24.482-47.753-17.613c-6.306,2.876-15.821,10.846-11.819,32.282c-4.787,5.103-19.456,16.495-52.804,13.363
			c-5.163-0.717-19.874-4.352-25.882-12.425c-8.943-12.032-34.5-18.167-49.749-11.955c-0.555,0.23-1.041,0.521-1.562,0.777
			c0.538,0.009,1.007,0.205,1.51,0.307c0.077,0.009,0.154,0.026,0.23,0.043c1.05,0.239,1.997,0.649,2.859,1.237
			c0.051,0.026,0.102,0.034,0.154,0.06c0.128,0.094,0.239,0.205,0.375,0.29c0.299,0.239,0.631,0.418,0.896,0.7
			c28.732,20.48,45.235,48.947,45.235,78.404c0,19.857-6.093,38.972-17.203,55.185c-4.07-0.435-10.146-1.442-18.466-3.789
			c11.989-14.524,18.603-32.563,18.603-51.396c0-33.135-25.335-55.415-37.743-64.35c-2.679-0.213-5.282-0.649-7.799-1.34
			c-0.247,1.92-0.29,3.917-0.009,6.016c1.382,10.146,0.239,14.251-0.239,15.437c-0.742,0.495-1.408,1.109-1.971,1.826
			c-1.212,1.553-29.107,37.956-17.818,84.241c-3.806,3.482-8.969,9.617-10.359,18.304c-1.143,7.108,0.452,14.225,4.77,21.231
			c-3.84,6.579-8.482,18.039-3.686,29.969c6.639,16.589,27.699,26.453,64.367,30.157c2.287,0.239,4.634-0.495,6.4-2.014
			c2.022-1.724,10.829-7.799,17.178-6.195c3.507,0.896,6.451,4.471,8.755,10.607c1.408,3.729,5.257,5.965,9.131,5.461
			c2.27-0.307,56.124-7.714,92.732-24.567c11.435-4.198,26.786-6.059,30.217-2.27c7.228,7.945,38.144,26.982,64.239,26.982
			c3.115,0,6.153-0.273,9.08-0.862c10.086-2.039,17.638-7.671,22.127-16.418c3.166-0.128,7.441,0.964,9.549,7.134
			c0.768,2.227,2.415,4.045,4.557,5.009c13.824,6.246,42.641,11.136,56.619-12.672l4.523-1.51c6.229,4.002,18.722,10.334,31.3,7.04
			c6.05-1.579,14.242-6.025,19.934-18.142l7.859-5.24l5.982-0.384c0.973-0.06,1.929-0.29,2.825-0.674
			c1.254-0.538,30.711-13.431,39.953-40.26C514.224,292.33,512.569,277.328,504.598,261.798z M213.245,268.471
			c1.553-4.454,6.409-6.784,10.871-5.239c47.77,16.7,91.187,25.173,129.041,25.173c4.719,0,8.533,3.823,8.533,8.533
			s-3.814,8.533-8.533,8.533c-39.782,0-85.094-8.789-134.673-26.129C214.03,277.789,211.692,272.917,213.245,268.471z
			 M128.099,212.578c4.71,0,8.533,3.823,8.533,8.533s-3.823,8.533-8.533,8.533c-4.71,0-8.533-3.823-8.533-8.533
			S123.389,212.578,128.099,212.578z M128.099,246.711c4.71,0,8.533,3.823,8.533,8.533c0,4.71-3.823,8.533-8.533,8.533
			c-4.71,0-8.533-3.823-8.533-8.533C119.566,250.534,123.389,246.711,128.099,246.711z M493.258,300.795
			c-5.837,17.067-24.439,27.204-29.363,29.636l-6.656,0.427c-1.493,0.094-2.935,0.58-4.19,1.417l-11.844,7.893
			c-1.425,0.947-2.526,2.304-3.174,3.883c-3.652,9.011-8.038,10.172-9.481,10.547c-7.296,1.92-17.374-4.309-20.318-6.622
			c-2.261-1.818-5.282-2.347-8.03-1.442l-11.844,3.951c-2.202,0.734-4.011,2.33-5.001,4.42
			c-7.569,15.872-25.583,11.571-32.973,8.977c-7.398-15.181-23.296-16.478-32.845-13.329c-2.517,0.819-4.497,2.773-5.385,5.265
			c-2.014,5.726-5.53,8.806-11.401,10.001c-18.935,3.797-51.268-14.251-57.293-20.881c-13.065-14.362-42.871-4.412-49.357-2.014
			c-27.81,12.791-67.209,20.028-82.304,22.477c-5.316-9.668-12.271-13.38-17.562-14.737c-12.16-3.106-23.927,3.524-29.44,7.398
			c-35.61-4.105-44.681-13.662-46.891-19.098c-3.413-8.388,4.651-18.193,4.702-18.253c2.68-3.14,2.731-7.748,0.12-10.948
			c-3.866-4.719-5.521-9.062-4.941-12.911c0.444-2.935,2.091-5.385,3.678-7.134c0.213,0.094,0.393,0.154,0.606,0.256
			c4.574,2.074,8.892,3.883,12.988,5.478c0.324,0.119,0.64,0.247,0.964,0.367c3.985,1.536,7.731,2.842,11.247,3.968
			c0.461,0.154,0.913,0.29,1.365,0.435c3.217,1.007,6.238,1.86,9.037,2.569c0.657,0.171,1.271,0.316,1.903,0.469
			c2.466,0.597,4.762,1.092,6.869,1.493c0.742,0.137,1.425,0.256,2.125,0.375c1.835,0.316,3.533,0.572,5.052,0.759
			c0.657,0.077,1.212,0.137,1.809,0.196c1.382,0.145,2.654,0.256,3.721,0.316c0.375,0.026,0.649,0.034,0.981,0.043
			c1.075,0.051,1.988,0.068,2.645,0.06c0.068,0,0.077,0,0.145-0.009c0.691-0.009,1.161-0.034,1.323-0.043
			c83.004-10.069,121.745,4.651,122.445,4.924c6.844,2.406,13.508,4.582,20.062,6.63c2.099,0.657,4.13,1.254,6.195,1.877
			c4.454,1.34,8.858,2.62,13.175,3.814c2.261,0.623,4.514,1.22,6.741,1.809c4.147,1.084,8.218,2.082,12.245,3.029
			c2.014,0.469,4.045,0.973,6.033,1.417c5.103,1.126,10.112,2.15,15.002,3.072c0.717,0.137,1.468,0.307,2.185,0.435
			c5.504,1.007,10.837,1.843,16.077,2.594c1.826,0.256,3.593,0.461,5.385,0.691c3.464,0.444,6.895,0.853,10.24,1.195
			c1.937,0.196,3.849,0.367,5.743,0.529c3.191,0.273,6.323,0.486,9.404,0.666c1.732,0.102,3.482,0.213,5.188,0.29
			c3.695,0.154,7.296,0.23,10.829,0.256c0.794,0.009,1.647,0.06,2.432,0.06c0.119,0,0.23-0.009,0.35-0.009
			c4.685-0.009,9.173-0.145,13.577-0.358c1.391-0.068,2.739-0.162,4.104-0.247c3.234-0.205,6.383-0.461,9.464-0.768
			c1.212-0.119,2.449-0.23,3.644-0.358c4.002-0.461,7.902-0.981,11.631-1.596c0.708-0.111,1.365-0.256,2.065-0.375
			c3.115-0.538,6.135-1.118,9.054-1.749c1.101-0.239,2.176-0.478,3.251-0.734c2.714-0.631,5.342-1.289,7.893-1.988
			c0.717-0.196,1.468-0.384,2.167-0.58c3.132-0.896,6.127-1.843,8.994-2.816c0.777-0.265,1.502-0.538,2.261-0.802
			c2.159-0.768,4.241-1.545,6.255-2.347c0.811-0.324,1.621-0.64,2.406-0.973c2.321-0.956,4.557-1.929,6.673-2.918
			c0.213-0.102,0.452-0.196,0.666-0.299c2.278-1.075,4.395-2.159,6.434-3.243c0.683-0.358,1.323-0.717,1.971-1.075
			c1.417-0.785,2.773-1.553,4.07-2.33c0.572-0.341,1.161-0.674,1.707-1.015c1.647-1.007,3.209-2.005,4.642-2.97
			c0.495-0.333,0.93-0.649,1.399-0.973c0.973-0.674,1.903-1.331,2.765-1.971c0.555-0.41,1.075-0.802,1.587-1.186
			c0.708-0.546,1.357-1.058,1.988-1.562c0.521-0.427,1.041-0.836,1.51-1.229c0.734-0.614,1.417-1.203,2.022-1.741
			c0.529-0.478,0.964-0.879,1.399-1.289c0.171-0.154,0.341-0.307,0.495-0.452c0.896-0.862,1.647-1.604,2.091-2.082
			c0.418-0.333,0.845-0.811,1.263-1.195c0.632-0.58,1.263-1.126,1.903-1.809c0.529-0.555,1.058-1.195,1.587-1.801
			c0.563-0.649,1.126-1.271,1.69-1.971c0.529-0.657,1.05-1.357,1.57-2.048c0.555-0.725,1.101-1.434,1.647-2.185
			c0.521-0.734,1.015-1.451,1.527-2.193c0.316-0.461,0.657-0.913,0.964-1.374C495.51,289.326,495.16,295.231,493.258,300.795z"/>
	</g>
</g>
</svg>