<!DOCTYPE svg PUBLIC "-//W3C//DTD SVG 1.1//EN" "http://www.w3.org/Graphics/SVG/1.1/DTD/svg11.dtd">
<!-- Uploaded to: SVG Repo, www.svgrepo.com, Transformed by: SVG Repo Mixer Tools -->
<svg fill="#999999" height="800px" width="800px" version="1.1" id="Layer_1" xmlns="http://www.w3.org/2000/svg" xmlns:xlink="http://www.w3.org/1999/xlink" viewBox="0 0 512.097 512.097" xml:space="preserve" stroke="#999999">
<g id="SVGRepo_bgCarrier" stroke-width="0"/>
<g id="SVGRepo_tracerCarrier" stroke-linecap="round" stroke-linejoin="round"/>
<g id="SVGRepo_iconCarrier"> <g> <g> <g> <path d="M504.595,261.784l-0.017-2.534c-0.589-8.294-10.138-27.58-86.366-27.58h-0.128c-4.847,0.341-11.255,0.358-18.039-0.119 l-9.054,12.937c-10.479,16.521-15.454,32.248-15.454,49.161c0,9.242,1.51,18.475,4.352,27.537 c-5.538,0.572-11.358,0.973-17.468,1.178c-2.594-9.455-3.951-19.072-3.951-28.715c0-20.292,5.828-38.921,18.321-58.624 l4.395-6.272c-10.633-2.62-19.447-7.1-21.333-14.387c-0.632-2.458-2.33-4.506-4.634-5.589c-1.562-0.742-9.711-4.207-16.683-0.452 c-0.137,0.068-0.282,0.154-0.418,0.23l-6.886-5.171c-0.154-0.401-0.435-0.922-0.631-1.365l-36.284,35.593 c-1.664,1.63-3.823,2.441-5.982,2.441c-2.202,0-4.42-0.853-6.093-2.56c-3.294-3.362-3.243-8.764,0.119-12.066l36.54-35.84 c-0.393-0.154-0.674-0.427-1.084-0.555c-3.243-1.041-7.97-1.408-13.559,1.442l-4.617-3.081c-0.137-0.333-0.35-0.734-0.512-1.092 l-35.482,39.296c-1.681,1.86-4.011,2.807-6.332,2.807c-2.048,0-4.087-0.725-5.717-2.202c-3.499-3.157-3.78-8.55-0.623-12.049 l35.174-38.946c-2.526-0.512-5.547-0.589-9.156,0.452c-2.671-1.434-5.965-3.61-7.987-5.922l-38.229,37.538 c-1.655,1.63-3.814,2.441-5.973,2.441c-2.21,0-4.42-0.853-6.093-2.551c-3.302-3.362-3.251-8.764,0.119-12.066l37.342-36.668 c-2.603-0.35-5.862-0.017-9.557,2.057c-2.432-0.572-7.893-2.876-14.336-12.041c-9.719-13.798-32.708-24.491-47.753-17.613 c-6.306,2.876-15.829,10.846-11.819,32.282c-4.787,5.103-19.354,16.486-52.838,13.355c-4.787-0.64-19.823-4.301-25.856-12.416 c-8.934-12.023-34.483-18.159-49.741-11.955c-9.464,3.857-14.285,12.134-12.928,22.144c1.382,10.146,0.239,14.259-0.239,15.445 c-0.742,0.495-1.399,1.109-1.963,1.818c-1.212,1.553-29.116,37.956-17.826,84.241c-3.806,3.482-8.969,9.617-10.359,18.304 c-1.143,7.108,0.452,14.225,4.77,21.231c-3.84,6.579-8.474,18.039-3.686,29.969c6.639,16.58,27.699,26.453,64.367,30.157 c2.313,0.222,4.642-0.486,6.409-2.014c2.022-1.724,10.752-7.834,17.178-6.195c3.499,0.905,6.451,4.471,8.755,10.607 c1.408,3.738,5.239,5.965,9.131,5.47c2.27-0.316,56.115-7.723,92.732-24.567c11.418-4.198,26.786-6.059,30.208-2.27 c7.228,7.936,38.144,26.974,64.239,26.974c3.115,0,6.153-0.273,9.079-0.862c10.078-2.031,17.63-7.663,22.127-16.384 c3.533-0.137,7.501,1.101,9.549,7.1c0.768,2.227,2.415,4.045,4.557,5.009c13.815,6.246,42.633,11.145,56.627-12.672l4.514-1.51 c6.238,4.011,18.679,10.317,31.317,7.04c6.042-1.57,14.234-6.025,19.925-18.142l7.868-5.239l5.965-0.384 c0.973-0.06,1.929-0.29,2.825-0.674c1.254-0.538,30.711-13.431,39.953-40.252C514.229,292.333,512.573,277.323,504.595,261.784z M68.337,231.064c0-9.412,7.663-17.067,17.067-17.067h68.267c9.412,0,17.067,7.654,17.067,17.067v17.067 c0,9.412-7.654,17.067-17.067,17.067H85.403c-9.404,0-17.067-7.654-17.067-17.067V231.064z M493.254,300.798 c-5.837,17.067-24.439,27.204-29.363,29.636l-6.648,0.427c-1.502,0.094-2.935,0.58-4.19,1.417l-11.844,7.893 c-1.425,0.956-2.526,2.304-3.174,3.891c-3.652,9.003-8.038,10.163-9.481,10.547c-7.296,1.946-17.382-4.309-20.326-6.63 c-2.261-1.818-5.291-2.347-8.03-1.442l-11.836,3.951c-2.202,0.734-4.002,2.33-5,4.42c-7.578,15.881-25.591,11.554-32.981,8.977 c-7.39-15.181-23.27-16.495-32.845-13.329c-2.509,0.828-4.489,2.773-5.376,5.265c-2.014,5.734-5.53,8.815-11.401,10.001 c-19.029,3.78-51.277-14.251-57.301-20.873c-13.082-14.387-42.88-4.412-49.357-2.014c-27.81,12.783-67.2,20.028-82.295,22.468 c-5.316-9.668-12.271-13.38-17.562-14.737c-12.203-3.132-23.927,3.524-29.44,7.398c-35.618-4.105-44.681-13.662-46.899-19.098 c-3.413-8.388,4.651-18.193,4.702-18.253c2.679-3.14,2.731-7.748,0.119-10.948c-3.866-4.719-5.521-9.062-4.941-12.911 c0.444-2.935,2.091-5.385,3.678-7.134c0.213,0.094,0.393,0.162,0.614,0.256c4.565,2.074,8.892,3.883,12.979,5.478 c0.316,0.119,0.631,0.247,0.947,0.367c3.994,1.527,7.748,2.842,11.273,3.968c0.452,0.145,0.896,0.29,1.34,0.427 c3.226,1.007,6.246,1.86,9.054,2.577c0.657,0.162,1.28,0.316,1.911,0.469c2.458,0.589,4.745,1.092,6.844,1.485 c0.777,0.145,1.468,0.265,2.193,0.393c1.792,0.299,3.465,0.555,4.958,0.742c0.717,0.085,1.323,0.154,1.963,0.222 c1.306,0.128,2.509,0.239,3.524,0.299c0.486,0.026,0.836,0.034,1.254,0.051c0.947,0.034,1.775,0.051,2.389,0.051 c0.205,0,0.265-0.009,0.427-0.009c0.563-0.017,0.981-0.034,1.118-0.043c82.978-10.061,121.737,4.651,122.436,4.924 c6.844,2.406,13.5,4.574,20.053,6.63c2.108,0.657,4.147,1.254,6.221,1.877c4.454,1.34,8.858,2.628,13.167,3.814 c2.261,0.623,4.489,1.22,6.707,1.801c4.173,1.092,8.269,2.099,12.305,3.046c1.997,0.469,4.019,0.964,5.982,1.399 c5.103,1.135,10.103,2.159,15.002,3.081c0.725,0.137,1.485,0.307,2.202,0.435c5.495,1.007,10.829,1.843,16.051,2.594 c1.852,0.265,3.635,0.469,5.453,0.7c3.447,0.444,6.852,0.845,10.189,1.186c1.946,0.196,3.857,0.367,5.768,0.529 c3.191,0.273,6.315,0.495,9.387,0.666c1.732,0.102,3.482,0.213,5.18,0.29c3.763,0.154,7.441,0.239,11.042,0.265 c0.725,0,1.502,0.051,2.227,0.051c0.111,0,0.205-0.009,0.316-0.009c4.702-0.009,9.216-0.145,13.619-0.358 c1.382-0.068,2.731-0.162,4.087-0.247c3.234-0.205,6.391-0.461,9.472-0.768c1.22-0.119,2.449-0.222,3.644-0.358 c4.002-0.461,7.893-0.981,11.631-1.587c0.717-0.12,1.391-0.265,2.099-0.384c3.089-0.538,6.093-1.118,8.994-1.741 c1.126-0.247,2.219-0.495,3.311-0.742c2.679-0.623,5.282-1.28,7.799-1.971c0.742-0.205,1.519-0.393,2.253-0.606 c3.115-0.887,6.093-1.826,8.951-2.799c0.794-0.273,1.536-0.546,2.313-0.819c2.142-0.768,4.215-1.536,6.221-2.33 c0.811-0.324,1.63-0.648,2.415-0.981c2.338-0.964,4.591-1.946,6.716-2.935c0.196-0.094,0.41-0.179,0.606-0.273 c2.295-1.084,4.429-2.176,6.485-3.268c0.64-0.341,1.254-0.683,1.877-1.024c1.476-0.811,2.884-1.621,4.232-2.415 c0.512-0.307,1.041-0.614,1.545-0.922c1.698-1.041,3.302-2.074,4.787-3.072c0.333-0.222,0.623-0.435,0.956-0.657 c1.169-0.811,2.27-1.587,3.294-2.347c0.418-0.316,0.819-0.614,1.22-0.913c0.939-0.725,1.809-1.408,2.62-2.065 c0.239-0.188,0.495-0.384,0.717-0.572c0.973-0.811,1.826-1.544,2.586-2.236c0.256-0.222,0.452-0.41,0.683-0.614 c0.521-0.478,0.981-0.913,1.391-1.314c0.188-0.179,0.358-0.341,0.529-0.503c0.469-0.478,0.879-0.887,1.169-1.195 c1.05-0.862,2.133-1.903,3.217-3.046c0.435-0.469,0.879-1.007,1.323-1.51c0.64-0.734,1.28-1.442,1.92-2.236 c0.529-0.657,1.041-1.348,1.562-2.039c0.546-0.717,1.092-1.425,1.63-2.159c0.529-0.742,1.032-1.468,1.544-2.219 c0.316-0.461,0.657-0.913,0.964-1.374C495.515,289.329,495.165,295.234,493.254,300.798z"/> <polygon points="153.671,231.064 85.404,231.064 85.404,248.131 153.679,248.131 "/> </g> </g> </g> </g>
</svg>